<svg xmlns="http://www.w3.org/2000/svg" width="16" height="13" viewBox="0 0 16 13">
  <defs>
    <style>
      .cls-1 {
        fill: #2b2b2b;
        fill-rule: evenodd;
      }
    </style>
  </defs>
  <path id="Forma_1_copy_3" data-name="Forma 1 copy 3" class="cls-1" d="M8,2.623l-5.708,4.8a0.142,0.142,0,0,1-.005.031,0.143,0.143,0,0,0,0,.03v4.865a0.629,0.629,0,0,0,.189.456A0.6,0.6,0,0,0,2.917,13H6.729V9.109H9.271V13h3.812a0.6,0.6,0,0,0,.447-0.193,0.63,0.63,0,0,0,.189-0.456V7.488a0.146,0.146,0,0,0-.01-0.061Zm7.892,3.71L13.718,4.488V0.353A0.317,0.317,0,0,0,13.628.12,0.3,0.3,0,0,0,13.4.028H11.494a0.3,0.3,0,0,0-.228.091,0.318,0.318,0,0,0-.089.233V2.329L8.754,0.261a1.212,1.212,0,0,0-1.509,0L0.108,6.333A0.3,0.3,0,0,0,0,6.55a0.333,0.333,0,0,0,.069.238l0.615,0.75a0.336,0.336,0,0,0,.209.111A0.361,0.361,0,0,0,1.13,7.579L8,1.731l6.87,5.848a0.3,0.3,0,0,0,.208.071h0.03a0.338,0.338,0,0,0,.209-0.111l0.616-.75A0.333,0.333,0,0,0,16,6.55,0.3,0.3,0,0,0,15.892,6.333Z"/>
</svg>
