<svg xmlns="http://www.w3.org/2000/svg" width="14" height="12" viewBox="0 0 14 12">
  <defs>
    <style>
      .cls-1 {
        fill: #2b2b2b;
        fill-rule: evenodd;
      }
    </style>
  </defs>
  <path id="Forma_1" data-name="Forma 1" class="cls-1" d="M1.344,3.7q0.266,0.2,1.6,1.215T4.992,6.468l0.332,0.26q0.254,0.2.422,0.324T6.152,7.329a2.264,2.264,0,0,0,.449.23,1.143,1.143,0,0,0,.391.077H7.008A1.144,1.144,0,0,0,7.4,7.559a2.264,2.264,0,0,0,.449-0.23q0.238-.153.406-0.277t0.422-.324q0.254-.2.332-0.26L12.664,3.7a3.909,3.909,0,0,0,.953-1.049A2.393,2.393,0,0,0,14,1.362,1.368,1.368,0,0,0,13.629.4,1.16,1.16,0,0,0,12.75,0H1.25A1.078,1.078,0,0,0,.324.442,1.828,1.828,0,0,0,0,1.55,2.1,2.1,0,0,0,.43,2.713,4.063,4.063,0,0,0,1.344,3.7ZM13.219,4.61Q10.657,6.5,9.328,7.551q-0.445.358-.723,0.558a4.313,4.313,0,0,1-.738.409,2.1,2.1,0,0,1-.859.209H6.992a2.1,2.1,0,0,1-.859-0.209A4.313,4.313,0,0,1,5.394,8.11q-0.277-.2-0.723-0.558Q3.617,6.707.789,4.61A4.272,4.272,0,0,1,0,3.869v6.768a1.376,1.376,0,0,0,.367.963,1.156,1.156,0,0,0,.883.4h11.5a1.156,1.156,0,0,0,.883-0.4A1.376,1.376,0,0,0,14,10.637V3.869A4.46,4.46,0,0,1,13.219,4.61Z"/>
</svg>
