<svg xmlns="http://www.w3.org/2000/svg" width="12" height="12" viewBox="0 0 12 12">
  <defs>
    <style>
      .cls-1 {
        fill: #2b2b2b;
        fill-rule: evenodd;
      }
    </style>
  </defs>
  <path id="Forma_1" data-name="Forma 1" class="cls-1" d="M11.994,9.47a0.581,0.581,0,0,1-.178.509l-1.69,1.678a0.955,0.955,0,0,1-.3.216,1.238,1.238,0,0,1-.362.114l-0.076.006C9.347,12,9.292,12,9.225,12a5.821,5.821,0,0,1-.781-0.082,5.933,5.933,0,0,1-1.321-.407,11.1,11.1,0,0,1-1.772-.973,13.219,13.219,0,0,1-2.109-1.78A13.923,13.923,0,0,1,1.768,7.08,11.95,11.95,0,0,1,.828,5.6,7.965,7.965,0,0,1,.294,4.366,6.547,6.547,0,0,1,.053,3.413,3.16,3.16,0,0,1,0,2.783q0.013-.229.013-0.254A1.231,1.231,0,0,1,.129,2.167a0.95,0.95,0,0,1,.216-0.3L2.034,0.178A0.559,0.559,0,0,1,2.441,0a0.475,0.475,0,0,1,.292.1A0.881,0.881,0,0,1,2.949.33l1.359,2.58a0.62,0.62,0,0,1,.064.445,0.792,0.792,0,0,1-.216.407l-0.622.623a0.213,0.213,0,0,0-.045.083,0.311,0.311,0,0,0-.019.095,2.288,2.288,0,0,0,.229.61,5.6,5.6,0,0,0,.47.744,8.234,8.234,0,0,0,.9,1.01,8.407,8.407,0,0,0,1.016.909,5.849,5.849,0,0,0,.743.477,1.978,1.978,0,0,0,.457.184L7.446,8.529A0.3,0.3,0,0,0,7.529,8.51a0.215,0.215,0,0,0,.083-0.044l0.724-.737a0.778,0.778,0,0,1,.534-0.2,0.661,0.661,0,0,1,.343.076H9.225l2.452,1.449A0.639,0.639,0,0,1,11.994,9.47Z"/>
</svg>
