<?xml version="1.0" standalone="no"?>
<!DOCTYPE svg PUBLIC "-//W3C//DTD SVG 1.1//EN" "http://www.w3.org/Graphics/SVG/1.1/DTD/svg11.dtd" >
<svg xmlns="http://www.w3.org/2000/svg">
<metadata>Generated by IcoMoon</metadata>
<defs>
<font id="icomoon" horiz-adv-x="1024">
<font-face units-per-em="1024" ascent="960" descent="-64" />
<missing-glyph horiz-adv-x="1024" />
<glyph unicode="&#x20;" horiz-adv-x="512" d="" />
<glyph unicode="&#xe900;" glyph-name="location-pin" d="M512 960c-114.858-0.126-224.974-42.55-306.19-117.966s-126.905-177.666-127.040-284.32c-0.138-87.158 30.522-171.951 87.276-241.372 0 0 11.815-14.445 13.745-16.531l332.209-363.812 332.367 363.996c1.733 1.938 13.588 16.347 13.588 16.347l0.039 0.109c56.722 69.39 87.371 154.144 87.237 241.262-0.134 106.654-45.82 208.904-127.041 284.32-81.217 75.416-191.332 117.84-306.19 117.966zM512 411.428c-31.158 0-61.616 8.58-87.524 24.654s-46.099 38.921-58.023 65.651c-11.923 26.73-15.043 56.144-8.965 84.52s21.083 54.442 43.115 74.901c22.032 20.458 50.103 34.391 80.662 40.035s62.235 2.747 91.022-8.325c28.786-11.072 53.39-29.821 70.701-53.878s26.55-52.339 26.55-81.272c-0.052-38.783-16.667-75.963-46.2-103.386s-69.573-42.851-111.339-42.9z" />
<glyph unicode="&#xe901;" glyph-name="location-pin-grey" horiz-adv-x="832" d="M405.888 960c-103.236-0.126-202.21-42.55-275.21-117.965s-114.064-177.666-114.186-284.32c-0.124-87.158 27.434-171.951 78.446-241.369 0 0 10.62-14.451 12.355-16.531l298.595-363.814 298.739 363.994c1.555 1.939 12.211 16.352 12.211 16.352l0.032 0.109c50.989 69.388 78.534 154.142 78.413 241.26-0.122 106.654-41.184 208.904-114.189 284.32-72.996 75.416-171.97 117.84-275.206 117.965zM405.888 411.428c-28.006 0-55.382 8.58-78.668 24.653s-41.434 38.921-52.152 65.651c-10.717 26.73-13.521 56.143-8.058 84.52s18.949 54.442 38.752 74.9c19.803 20.458 45.034 34.391 72.501 40.035s55.938 2.748 81.812-8.324c25.873-11.072 47.988-29.822 63.547-53.878s23.864-52.339 23.864-81.272c-0.047-38.783-14.98-75.963-41.524-103.386s-62.534-42.851-100.074-42.9z" />
<glyph unicode="&#xe902;" glyph-name="mail" d="M923.43 800h-822.859c-18.186 0-35.628-7.417-48.487-20.62s-20.084-31.109-20.084-49.78v-563.2c0-18.669 7.224-36.576 20.084-49.779s30.301-20.621 48.487-20.621h822.859c18.182 0 35.629 7.418 48.486 20.621s20.083 31.11 20.083 49.779v563.2c0 18.671-7.226 36.578-20.083 49.78s-30.304 20.62-48.486 20.62zM848 729.6l-336-238.656-336 238.656h672zM100.572 166.4v531.168l391.885-278.432c5.74-4.088 12.558-6.278 19.543-6.278s13.804 2.191 19.543 6.278l391.887 278.432v-531.168h-822.859z" />
<glyph unicode="&#xe903;" glyph-name="phone" d="M777.481 960h-530.963c-20.117 0-39.41-7.706-53.635-21.423s-22.217-32.321-22.217-51.72v-877.718c0-19.396 7.992-37.999 22.217-51.712 14.225-13.722 33.518-21.427 53.635-21.427h530.963c20.117 0 39.41 7.706 53.635 21.427 14.225 13.713 22.217 32.316 22.217 51.712v877.718c0 19.399-7.991 38.003-22.217 51.72s-33.518 21.423-53.635 21.423zM549.926 9.139h-75.851v73.148h75.851v-73.148zM246.519 155.429v731.428h530.963v-731.428h-530.963z" />
<glyph unicode="&#xe904;" glyph-name="search" d="M586.089 84.227c-97.161 0.020-191.521 32.543-268.057 92.392l-240.632-240.62-77.401 77.394 240.632 240.62c-59.884 76.542-92.43 170.919-92.454 268.099 0 241.44 196.458 437.888 437.911 437.888s437.911-196.448 437.911-437.888c0-241.44-196.458-437.885-437.911-437.885zM586.089 850.528c-181.131 0-328.433-147.295-328.433-328.416s147.302-328.413 328.433-328.413c181.133 0 328.432 147.291 328.432 328.413s-147.299 328.416-328.432 328.416z" />
<glyph unicode="&#xe905;" glyph-name="star" d="M512 960c282.77 0 512-229.23 512-512s-229.23-512-512-512c-282.77 0-512 229.23-512 512s229.23 512 512 512z" />
<glyph unicode="&#xe906;" glyph-name="down-arroow" d="M1007.633 699.864l-33.543 33.776c-10.556 10.548-24.601 16.359-39.612 16.359-15.002 0-29.064-5.811-39.62-16.359l-382.629-382.646-383.071 383.071c-10.54 10.548-24.601 16.351-39.603 16.351s-29.072-5.803-39.62-16.351l-33.551-33.567c-21.846-21.829-21.846-57.386 0-79.215l456.092-457.732c10.54-10.54 24.585-17.966 39.72-17.966h0.175c15.010 0 29.055 7.434 39.595 17.966l455.667 456.491c10.556 10.54 16.351 25.009 16.367 40.011 0 15.010-5.811 29.28-16.367 39.811z" />
<glyph unicode="&#xe907;" glyph-name="carbon_location-filled" horiz-adv-x="819" d="M420.467 876.416c-68.719-0.101-134.601-34.386-183.192-95.332s-75.926-143.578-76.007-229.769c-0.083-70.435 18.261-138.96 52.217-195.061 0 0 7.069-11.674 8.223-13.358l198.759-294.010 198.854 294.158c1.037 1.567 8.129 13.211 8.129 13.211l0.024 0.089c33.939 56.077 52.274 124.569 52.193 194.972-0.081 86.191-27.416 168.823-76.007 229.769s-114.474 95.231-183.193 95.332zM420.467 433.097c-18.642 0-36.865 6.933-52.365 19.924s-27.581 31.453-34.715 53.055c-7.134 21.602-9 45.371-5.364 68.304s12.614 43.997 25.795 60.53c13.182 16.533 29.977 27.792 48.26 32.354s37.235 2.221 54.458-6.727c17.222-8.948 31.943-24.1 42.3-43.541s15.885-42.297 15.885-65.679c-0.031-31.342-9.972-61.388-27.641-83.55s-41.626-34.63-66.614-34.669z" />
<glyph unicode="&#xe908;" glyph-name="slider-left-arrow" horiz-adv-x="1088" d="M18.745 493.255c-24.994-24.994-24.994-65.516 0-90.51l407.293-407.295c24.994-24.992 65.516-24.992 90.51 0 24.993 24.998 24.993 65.517 0 90.509l-362.039 362.042 362.039 362.038c24.993 24.994 24.993 65.516 0 90.51s-65.516 24.994-90.509 0l-407.294-407.293zM1088 512h-1024v-128h1024v128z" />
<glyph unicode="&#xe909;" glyph-name="slider-right-arrow" horiz-adv-x="1088" d="M1069.254 402.745c24.992 24.994 24.992 65.516 0 90.51l-407.296 407.293c-24.991 24.994-65.513 24.994-90.507 0s-24.993-65.516 0-90.51l362.040-362.038-362.040-362.042c-24.993-24.992-24.993-65.51 0-90.509 24.994-24.992 65.516-24.992 90.507 0l407.296 407.295zM0 384h1024v128h-1024v-128z" />
<glyph unicode="&#xe90a;" glyph-name="filter" horiz-adv-x="1091" d="M1091.148 750.164v-83.934h-738.623l167.869-134.295-75.541-58.754-293.77 235.016 293.77 235.016 75.541-58.754-167.869-134.295h738.623zM100.721 456.393v503.607h-100.721v-503.607h100.721zM0 229.77v-83.934h738.623l-167.869-134.295 75.541-58.754 293.77 235.016-293.77 235.016-67.148-58.754 167.869-134.295h-747.016zM990.426-64v503.607h100.721v-503.607h-100.721z" />
<glyph unicode="&#xe90b;" glyph-name="teenyicons_password-solid" d="M750.93 209.067h-68.267v68.267h68.267v-68.267zM546.13 209.067h68.267v68.267h-68.267v-68.267zM887.463 209.067h-68.267v68.267h68.267v-68.267zM204.8 550.4h-102.4c-27.158 0-53.204-10.79-72.408-29.992-19.204-19.206-29.992-45.249-29.992-72.408v-409.6c0-27.159 10.789-53.202 29.992-72.408 19.204-19.202 45.25-29.992 72.408-29.992h682.667c27.159 0 53.202 10.79 72.408 29.992 19.202 19.206 29.992 45.249 29.992 72.408v37.547c38.582 7.835 73.265 28.767 98.179 59.248 24.917 30.481 38.525 68.638 38.525 108.005s-13.608 77.524-38.525 108.005c-24.914 30.481-59.597 51.412-98.179 59.248v37.547c0 27.159-10.79 53.202-29.992 72.408-19.206 19.202-45.249 29.992-72.408 29.992h-102.4v170.667c0 31.377-6.182 62.447-18.189 91.436s-29.605 55.328-51.792 77.515c-22.187 22.187-48.526 39.787-77.517 51.794-28.987 12.008-60.059 18.188-91.436 18.188s-62.449-6.18-91.436-18.188c-28.989-12.008-55.328-29.607-77.515-51.794s-39.787-48.527-51.794-77.515c-12.008-28.989-18.188-60.059-18.188-91.436v-170.667zM273.067 721.067c0 45.263 17.981 88.673 49.987 120.68s75.415 49.987 120.68 49.987c45.265 0 88.675-17.981 120.68-49.987s49.986-75.416 49.986-120.68v-170.667h-341.333v170.667zM580.267 345.6h273.067c27.159 0 53.202-10.79 72.408-29.992 19.202-19.206 29.992-45.249 29.992-72.408s-10.79-53.202-29.992-72.408c-19.206-19.202-45.249-29.992-72.408-29.992h-273.067c-27.159 0-53.202 10.79-72.408 29.992-19.202 19.206-29.992 45.249-29.992 72.408s10.79 53.202 29.992 72.408c19.206 19.202 45.249 29.992 72.408 29.992z" />
<glyph unicode="&#xe90c;" glyph-name="carbon_phone-filled" d="M633.754 272.64l71.68 71.68c9.657 9.535 21.87 16.061 35.163 18.786s27.093 1.536 39.719-3.426l87.359-34.883c12.761-5.179 23.706-14.021 31.449-25.411 7.747-11.386 11.945-24.816 12.071-38.589v-160c-0.075-9.366-2.044-18.625-5.79-27.211-3.745-8.59-9.192-16.329-16.006-22.756-6.817-6.428-14.864-11.41-23.658-14.647-8.791-3.237-18.148-4.659-27.506-4.183-612.159 38.077-735.679 556.479-759.039 754.879-1.084 9.743-0.094 19.605 2.907 28.937s7.943 17.924 14.503 25.209c6.56 7.285 14.587 13.099 23.555 17.058s18.672 5.976 28.475 5.916h154.56c13.792-0.041 27.257-4.207 38.662-11.963s20.23-18.746 25.338-31.557l34.878-87.36c5.132-12.578 6.439-26.388 3.765-39.706-2.678-13.318-9.216-25.552-18.803-35.174l-71.68-71.68c0 0 41.28-279.359 318.398-313.919z" />
<glyph unicode="&#xe90d;" glyph-name="drop-arrow" horiz-adv-x="1365" d="M682.667-64l-591.207 1024h1182.419l-591.212-1024z" />
<glyph unicode="&#xe90e;" glyph-name="sidebar-icon2" d="M592 192c26.509 0 48 21.491 48 48s-21.491 48-48 48c-26.509 0-48-21.491-48-48s21.491-48 48-48zM752 192c26.509 0 48 21.491 48 48s-21.491 48-48 48c-26.509 0-48-21.491-48-48s21.491-48 48-48zM912 192c26.509 0 48 21.491 48 48s-21.491 48-48 48c-26.509 0-48-21.491-48-48s21.491-48 48-48zM492.8 0l-332.8 198.4c-19.2 12.8-32 32-32 54.4v390.4c0 22.4 12.8 44.8 32 54.4l320 188.8c9.6 6.4 19.2 9.6 32 9.6s22.4-3.2 32-9.6l320-188.8c19.2-12.8 32-32 32-54.4v-195.2h-64v195.2l-320 188.8-320-188.8v-390.4l336-198.4-35.2-54.4z" />
<glyph unicode="&#xe90f;" glyph-name="sidebar-icon1" horiz-adv-x="1103" d="M1059.446 603.569c-27.68 65.513-67.805 125.033-118.154 175.262-50.227 50.35-109.749 90.476-175.262 118.154-68.061 28.8-140.186 43.323-214.646 43.323s-146.586-14.523-214.646-43.323c-65.513-27.678-125.033-67.804-175.262-118.154-50.35-50.228-90.476-109.749-118.154-175.262-28.8-68.061-43.323-140.186-43.323-214.646 0-163.324 71.754-317.168 196.8-422.278l2.093-1.721c7.138-5.908 16.123-9.232 25.354-9.232h654.401c9.232 0 18.215 3.324 25.352 9.232l2.095 1.721c124.92 105.11 196.675 258.954 196.675 422.278 0 74.461-14.647 146.586-43.323 214.646zM858.34 49.231h-613.91c-47.557 42.882-85.567 95.283-111.562 153.805-25.995 58.518-39.395 121.852-39.33 185.888 0 122.336 47.631 237.292 134.154 323.692 86.523 86.523 201.478 134.154 323.692 134.154 122.34 0 237.292-47.631 323.694-134.154 86.52-86.523 134.152-201.478 134.152-323.692 0-129.969-54.768-252.924-150.89-339.692zM688.616 559.384c-1.851 1.835-4.352 2.863-6.955 2.863s-5.104-1.028-6.951-2.863l-104.003-103.999c-23.016 6.156-48.49 0.248-66.584-17.845-6.408-6.396-11.492-13.993-14.962-22.359-3.466-8.361-5.254-17.325-5.254-26.38s1.788-18.018 5.254-26.384c3.47-8.361 8.554-15.959 14.962-22.355 6.396-6.408 13.993-11.492 22.355-14.962 8.365-3.47 17.329-5.254 26.384-5.254s18.018 1.784 26.384 5.254c8.361 3.47 15.959 8.554 22.355 14.962 8.57 8.546 14.738 19.204 17.869 30.893 3.135 11.693 3.127 24.005-0.024 35.69l103.999 103.999c3.816 3.816 3.816 10.094 0 13.911l-34.828 34.828zM524.308 684.308h54.154c5.415 0 9.846 4.431 9.846 9.846v98.462c0 5.415-4.431 9.846-9.846 9.846h-54.154c-5.415 0-9.846-4.431-9.846-9.846v-98.462c0-5.415 4.431-9.846 9.846-9.846zM844.308 416v-54.154c0-5.415 4.431-9.846 9.846-9.846h98.462c5.415 0 9.846 4.431 9.846 9.846v54.154c0 5.415-4.431 9.846-9.846 9.846h-98.462c-5.415 0-9.846-4.431-9.846-9.846zM859.939 658.708l-38.278 38.277c-1.851 1.833-4.348 2.861-6.955 2.861-2.603 0-5.1-1.028-6.951-2.861l-69.664-69.661c-1.831-1.851-2.859-4.35-2.859-6.954s1.028-5.103 2.859-6.954l38.278-38.277c3.816-3.815 10.094-3.815 13.907 0l69.664 69.662c3.812 3.816 3.812 10.093 0 13.908zM295.508 696.984c-1.851 1.833-4.35 2.861-6.954 2.861s-5.103-1.028-6.954-2.861l-38.277-38.277c-1.833-1.851-2.861-4.35-2.861-6.954s1.028-5.103 2.861-6.954l69.661-69.662c3.816-3.815 10.092-3.815 13.908 0l38.277 38.277c3.815 3.816 3.815 10.092 0 13.908l-69.662 69.661zM243.692 425.846h-98.462c-5.415 0-9.846-4.431-9.846-9.846v-54.154c0-5.415 4.431-9.846 9.846-9.846h98.462c5.415 0 9.846 4.431 9.846 9.846v54.154c0 5.415-4.431 9.846-9.846 9.846z" />
<glyph unicode="&#xe910;" glyph-name="sidebar-icon4" d="M894.003 504.89h-609.566v-56.886h609.566c7.542 0 14.778 2.995 20.112 8.33s8.333 12.57 8.333 20.112c0 7.546-2.998 14.781-8.333 20.115s-12.57 8.33-20.112 8.33zM894.003 277.334h-609.566v-56.886h609.566c7.542 0 14.778 2.995 20.112 8.33s8.333 12.57 8.333 20.115c0 7.542-2.998 14.778-8.333 20.112s-12.57 8.33-20.112 8.33zM439.469 675.556h455.11c7.546 0 14.781 2.997 20.115 8.331s8.33 12.569 8.33 20.113c0 7.544-2.995 14.779-8.33 20.113s-12.57 8.331-20.115 8.331h-398.221l-56.89-56.889zM497.779 862.719c-2.883 2.915-6.314 5.23-10.099 6.81-3.782 1.58-7.843 2.393-11.942 2.393-4.102 0-8.163-0.813-11.946-2.393s-7.216-3.894-10.099-6.81l-229.263-229.263-96.142 103.539c-5.658 6.073-13.497 9.649-21.792 9.943s-16.367-2.72-22.44-8.378c-6.073-5.658-9.649-13.497-9.943-21.792s2.72-16.367 8.378-22.44l140.516-150.757 274.772 274.206c3.011 2.917 5.405 6.409 7.040 10.27s2.477 8.009 2.477 12.201c0 4.192-0.842 8.341-2.477 12.202s-4.029 7.353-7.040 10.27z" />
<glyph unicode="&#xe911;" glyph-name="sidebar-icon5" horiz-adv-x="1152" d="M403.2 448c127.261 0 230.4 114.602 230.4 256 0 141.4-103.139 256-230.4 256s-230.4-114.6-230.4-256c0-141.398 103.14-256 230.4-256zM564.48 384h-30.061c-39.958-20.4-84.419-32-131.219-32s-91.080 11.6-131.22 32h-30.060c-133.56 0-241.92-120.4-241.92-268.8v-83.2c0-52.998 38.7-96 86.4-96h494.819c-4.32 13.6-6.118 28-4.678 42.598l12.24 121.802 2.16 22.198 153.36 170.4c-44.102 55.402-108 91.002-179.821 91.002zM646.019 93.402l-12.24-122c-1.981-20.4 13.501-37.6 31.68-35.2l109.622 13.597 248.218 275.802-129.059 143.398-248.221-275.597zM1139.402 422.202l-68.221 75.798c-16.742 18.602-44.102 18.602-60.842 0l-75.418-83.798 129.238-143.402 75.242 83.6c16.739 18.8 16.739 49.002 0 67.802z" />
<glyph unicode="&#xe912;" glyph-name="sidebar-icon6" horiz-adv-x="1062" d="M931.582 189.626h-83.319c-5.689 0-11.021-2.488-14.579-6.872-8.294-10.073-17.184-19.794-26.548-29.036-38.294-38.336-83.653-68.881-133.571-89.957-51.712-21.842-107.296-33.049-163.434-32.95-56.771 0-111.764 11.143-163.438 32.95-49.917 21.075-95.276 51.621-133.57 89.957-38.363 38.203-68.952 83.483-90.074 133.332-21.926 51.674-32.948 106.549-32.948 163.317 0 56.771 11.141 111.646 32.948 163.32 21.096 49.896 51.437 94.815 90.074 133.333s83.555 68.859 133.57 89.956c51.674 21.807 106.666 32.948 163.438 32.948s111.764-11.022 163.434-32.948c50.017-21.096 94.936-51.437 133.571-89.956 9.364-9.363 18.132-19.081 26.548-29.037 3.557-4.385 9.007-6.874 14.579-6.874h83.319c7.464 0 12.087 8.296 7.938 14.578-90.901 141.274-249.955 234.785-430.694 234.311-283.97-0.711-511.644-231.23-508.799-514.846 2.844-279.108 230.163-504.415 510.104-504.415 180.266 0 338.606 93.393 429.39 234.314 4.032 6.281-0.474 14.575-7.938 14.575zM1036.944 457.834l-168.179 132.741c-6.281 4.978-15.406 0.474-15.406-7.466v-90.076h-372.148c-5.215 0-9.481-4.267-9.481-9.481v-66.37c0-5.215 4.267-9.481 9.481-9.481h372.148v-90.074c0-7.938 9.243-12.443 15.406-7.464l168.179 132.741c1.134 0.887 2.048 2.018 2.681 3.311 0.63 1.297 0.956 2.715 0.956 4.153 0 1.441-0.326 2.86-0.956 4.153-0.633 1.297-1.547 2.427-2.681 3.315z" />
<glyph unicode="&#xe913;" glyph-name="sidebar-icon7" d="M914.286 301.714c-29.257 0-54.857-10.971-76.8-32.914l-14.629-18.286-14.629 18.286c-21.943 21.943-51.2 32.914-76.8 32.914s-54.857-10.971-76.8-32.914c-43.886-43.886-43.886-113.371 0-157.257l168.229-175.543 168.229 175.543c43.886 43.886 43.886 113.371 0 157.257-18.286 21.943-47.543 32.914-76.8 32.914zM533.943-12.8l-460.8 460.8 438.857 438.857 460.8-460.8 51.2 51.2-457.143 460.8c-29.257 29.257-76.8 29.257-106.057 0l-438.857-435.2c-29.257-29.257-29.257-76.8 0-106.057l457.143-460.8 54.857 51.2z" />
<glyph unicode="&#xe914;" glyph-name="sidebar-icon3" horiz-adv-x="824" d="M71.418 894.083h67.097v43.551c0 12.343 10.023 22.366 22.386 22.366 12.343 0 22.366-10.023 22.366-22.366v-43.551h98.445v43.551c0 12.343 10.023 22.366 22.386 22.366 12.343 0 22.366-10.023 22.366-22.366v-43.551h98.445v43.551c0 12.343 10.023 22.366 22.386 22.366 12.343 0 22.366-10.023 22.366-22.366v-43.551h98.445v43.551c0 12.343 10.023 22.366 22.386 22.366 12.343 0 22.366-10.023 22.366-22.366v-43.551h69.118c19.665 0 37.53-8.062 50.433-20.985 10.723-10.703 18.085-24.806 20.305-40.47h0.080c19.645 0 37.53-8.062 50.433-20.965 12.943-12.943 20.985-30.828 20.985-50.453v-753.791c0-19.545-8.082-37.409-20.985-50.353-13.023-13.003-30.908-21.065-50.433-21.065h-617.337c-19.625 0-37.51 8.042-50.453 20.985-12.283 12.283-20.185 29.067-20.905 47.612-16.724 1.72-31.808 9.322-43.111 20.625-12.923 12.903-20.985 30.768-20.985 50.433v747.010c0 19.665 8.062 37.55 20.965 50.453s30.788 20.965 50.453 20.965zM753.391 791.937v-716.282c0-19.605-8.062-37.49-20.985-50.413-12.943-12.943-30.828-21.005-50.433-21.005h-577.087c0.78-7.182 4.021-13.643 8.882-18.505 5.581-5.581 13.283-9.062 21.686-9.062h617.337c8.442 0 16.144 3.481 21.706 9.042s9.042 13.263 9.042 21.706v753.791c0 8.402-3.481 16.104-9.082 21.686-5.399 5.431-12.815 8.851-21.029 9.042l-0.036 0.001zM165.242 187.044c-11.483 0-20.805 9.722-20.805 21.706s9.322 21.706 20.805 21.706h429.669c11.483 0 20.825-9.722 20.825-21.706s-9.342-21.706-20.825-21.706h-429.669zM165.242 330.24c-11.483 0-20.805 9.722-20.805 21.706s9.322 21.706 20.805 21.706h429.669c11.483 0 20.825-9.722 20.825-21.706s-9.342-21.706-20.825-21.706h-429.669zM165.242 473.436c-11.483 0-20.805 9.722-20.805 21.706s9.322 21.706 20.805 21.706h429.669c11.483 0 20.825-9.722 20.825-21.706s-9.342-21.706-20.825-21.706h-429.669zM165.242 616.633c-11.483 0-20.805 9.722-20.805 21.706s9.322 21.706 20.805 21.706h429.669c11.483 0 20.825-9.722 20.825-21.706s-9.342-21.706-20.825-21.706h-429.669zM612.856 853.413v-43.551c0-12.343-10.023-22.366-22.366-22.366-12.363 0-22.386 10.023-22.386 22.366v43.551h-98.445v-43.551c0-12.343-10.023-22.366-22.366-22.366-12.363 0-22.386 10.023-22.386 22.366v43.551h-98.445v-43.551c0-12.343-10.023-22.366-22.366-22.366-12.363 0-22.386 10.023-22.386 22.366v43.551h-98.445v-43.551c0-12.343-10.023-22.366-22.366-22.366-12.363 0-22.386 10.023-22.386 22.366v43.551h-67.097c-8.442 0-16.144-3.501-21.706-9.042-5.541-5.561-9.042-13.263-9.042-21.706v-747.010c0-8.402 3.501-16.104 9.062-21.686 5.601-5.581 13.303-9.062 21.686-9.062h610.555c8.382 0 16.064 3.501 21.666 9.082 5.581 5.601 9.082 13.303 9.082 21.666v747.010c0 8.382-3.481 16.084-9.062 21.686-5.581 5.561-13.283 9.062-21.686 9.062h-69.118z" />
</font>
</defs>
</svg>
